<svg xmlns="http://www.w3.org/2000/svg" viewBox="0 0 64 64" role="img" aria-labelledby="title desc">
  <title id="title">Al Islam portfolio favicon</title>
  <desc id="desc">A circular monogram with a CV sheet accent for the portfolio website.</desc>
  <defs>
    <linearGradient id="bg" x1="12" x2="52" y1="10" y2="54" gradientUnits="userSpaceOnUse">
      <stop offset="0" stop-color="#0c1522" />
      <stop offset="1" stop-color="#13263d" />
    </linearGradient>
    <linearGradient id="ring" x1="16" x2="48" y1="12" y2="52" gradientUnits="userSpaceOnUse">
      <stop offset="0" stop-color="#f0d9a1" />
      <stop offset="1" stop-color="#8fd7ff" />
    </linearGradient>
  </defs>
  <circle cx="32" cy="32" r="28" fill="url(#bg)" />
  <circle cx="32" cy="32" r="27" fill="none" stroke="url(#ring)" stroke-width="2" />
  <path fill="#f7e7bb" d="M22 19.5h14.5l5.5 5.5V43a3 3 0 0 1-3 3H22a3 3 0 0 1-3-3V22.5a3 3 0 0 1 3-3Z" opacity=".96" />
  <path fill="#d5b06f" d="M36.5 19.5V25h5.5z" />
  <path fill="#102033" d="M25 29h11v3H25zm0 6h12v3H25zm0 6h9v3h-9z" opacity=".88" />
  <path fill="#8fd7ff" d="M17.5 47.5 29 16h5L22.5 47.5z" />
</svg>
